<?xml version="1.0" encoding="utf-8"?>
<svg width="131px" height="549px" viewBox="0 0 131 549" version="1.1" xmlns:xlink="http://www.w3.org/1999/xlink" xmlns="http://www.w3.org/2000/svg">
  <desc>Created with Lunacy</desc>
  <g id="Group" transform="translate(4 4)">
    <path d="M29.5 0L59 478L0 478L29.5 0Z" transform="translate(31 0)" id="Triangle" fill="#FFFFFF" stroke="none" />
    <path d="M0 61.5C0 27.5345 27.5345 0 61.5 0C95.4655 0 123 27.5345 123 61.5C123 95.4655 95.4655 123 61.5 123C27.5345 123 0 95.4655 0 61.5Z" transform="translate(0 417.0001)" id="Ellipse" fill="#FFFFFF" stroke="none" />
    <path d="M0 20.5C0 9.17816 9.17816 0 20.5 0C31.8218 0 41 9.17816 41 20.5C41 31.8218 31.8218 41 20.5 41C9.17816 41 0 31.8218 0 20.5Z" transform="translate(41 458.0001)" id="Ellipse-2" fill="#FFFFFF" stroke="#414141" stroke-width="6" />
  </g>
</svg>