<svg id="Layer_1" data-name="Layer 1" xmlns="http://www.w3.org/2000/svg" viewBox="0 0 1024.59 413.35"><defs><style>.cls-1{fill:#d8d8d8;}.cls-2{fill:#7c7c7c;}.cls-3,.cls-4,.cls-5,.cls-6{fill:none;stroke:#d8d8d8;stroke-linecap:round;stroke-miterlimit:10;}.cls-3{stroke-width:14px;}.cls-4{stroke-width:11px;}.cls-5{stroke-width:9px;}.cls-6{stroke-width:12px;}</style></defs><title>drone2</title><path class="cls-1" d="M7556.21,7452.38l-184.66-50.94c-2.21-.61-3.32-3.34-2.46-6.07h0c.86-2.73,3.37-4.46,5.59-3.85l184.66,50.94c2.21.61,3.32,3.34,2.46,6.07h0C7560.94,7451.26,7558.43,7453,7556.21,7452.38Z" transform="translate(-6816.89 -7163.6)"></path><path class="cls-1" d="M7551.28,7443.24l195.66-145.86a5.8,5.8,0,0,1,7.75.9h0a5,5,0,0,1-.8,7.27l-195.66,145.86a5.8,5.8,0,0,1-7.75-.9h0A5,5,0,0,1,7551.28,7443.24Z" transform="translate(-6816.89 -7163.6)"></path><path class="cls-1" d="M7368.84,7399l-140.33-194.29a5,5,0,0,1,1.47-7.18h0a5.75,5.75,0,0,1,7.66,1.38L7378,7393.16a5,5,0,0,1-1.47,7.18h0A5.78,5.78,0,0,1,7368.84,7399Z" transform="translate(-6816.89 -7163.6)"></path><path class="cls-1" d="M7180.1,7171.36l4,27.63s8.91-1.09,14.42,10.6,8.57,17.05,9.55,22.18,5.92,13,5.92,13l7.21,11.29,56.32-10.94,4.95-10,375.63,62.27,44.42-9.79s19.67,21.88,16.47,30.24-13.8,16.23-13.8,16.23.65,11.19,6.86,15.19,37.2-9.21,42-14.2,22.76-12.37,30.34-16.64,4.47-10.15,10.86-19.1,23.23-4.2,31.94-12.84,3-36-2.2-38.3-221.76-15.12-221.76-15.12l-215.81-31.83s-16.62-.89-26.3-1.26-44.13.93-44.13.93-2.32-8.51-6.17-11.34-13-2.79-26.28-.83-44.16,8.28-44.16,8.28l-2.28-23.63-34.46.88Z" transform="translate(-6816.89 -7163.6)"></path><path class="cls-2" d="M7139.82,7173.18c.14-2,6.5-3.18,9.45-3.72a43.77,43.77,0,0,1,18.42.15c9.22,2.15,13.64,6.46,18.2,4.48a9.69,9.69,0,0,1,5-1.12c1.78.15,2.6.84,4.23,1.51a18.6,18.6,0,0,0,9.72,1c3.77-.48,4.65-2,7.65-3,5.72-1.93,8.35,1.44,18.59,3.16,11.2,1.88,17.42-.57,19.74,3.1a4.83,4.83,0,0,1,.26,4.52c-1.9,4-11,3.4-15.24,3.14-11.11-.65-13.45-4.16-20.61-2.41-4,1-8.15,2.36-8.15,2.36-4.27,1.42-6.14,2.35-8.65,1.73-1.41-.35-2.37-1.1-4.29-2.59-4-3.15-3.81-4.69-6.55-5.93a12.54,12.54,0,0,0-6.48-.75c-2.61.26-3.4,1-5.44,1.57-5.16,1.39-7.27-1.54-15.76-2-4.27-.24-3.77.5-7.35.16C7146.48,7178,7139.67,7175.33,7139.82,7173.18Z" transform="translate(-6816.89 -7163.6)"></path><path class="cls-2" d="M7597.83,7223.41c.34-1.61,7.75-1.54,12.57-1.5,8.09.08,12.87,1,19.66,1.82,10.54,1.25,8.86.2,21.71,1.49,14.95,1.5,20.43,3.24,24,4.62s5.33,3.49,10.18,5.09a40.37,40.37,0,0,0,11.85,2,15.69,15.69,0,0,1,5.9-9.57c3.38-2.45,6.93-2.66,13.4-3.05s9.69-.59,12.71,1.08c6.47,3.58,6.94,12.25,7,13.67,5.23.63,13.57,1.6,23.85,2.68,14,1.48,26.86,2.67,43.56,5.14,4.53.67,25.43,3.92,34.57,13.14.88.88,3.34,3.37,2.58,4.83-1.11,2.14-8.37.77-10.79.33-9.7-1.74-24.69-3.24-54.67-6.3-12.34-1.26-21.07-1.56-33-6.31a84.53,84.53,0,0,1-8-3.7,20,20,0,0,1-17.19,9.07,19.71,19.71,0,0,1-18-12.47c-17.39-1.3-30.57-2.22-38.81-2.79-12.71-.87-17.51-1.15-24.8-3.06-3.16-.83-10.11-3.6-24-9.15C7601.08,7226.09,7597.58,7224.57,7597.83,7223.41Z" transform="translate(-6816.89 -7163.6)"></path><ellipse class="cls-2" cx="7198.9" cy="7121.19" rx="11.25" ry="12.6" transform="matrix(1, -0.08, 0.08, 1, -7397.28, -6529.92)"></ellipse><rect class="cls-1" x="7034.59" y="7520.74" width="275.4" height="11.52" rx="5.76" transform="translate(-3843.8 -9147.97) rotate(19.8)"></rect><rect class="cls-1" x="7251.79" y="7472.14" width="275.4" height="11.52" rx="5.76" transform="translate(11085.42 376.82) rotate(135)"></rect><rect class="cls-1" x="6843.37" y="7363.12" width="272.9" height="11.52" rx="5.76" transform="translate(2879.13 -9574.32) rotate(58.97)"></rect><path class="cls-1" d="M6859,7220.1l2.52,31s9.36-.72,14.4,12.6,7.92,19.44,8.64,25.2,5.4,14.76,5.4,14.76l6.84,13,59.4-9,5.76-10.8,388.08,90.36,46.92-8.4s19.2,25.44,15.36,34.56-15.36,17.28-15.36,17.28,0,12.48,6.24,17.28,39.36-8.16,44.64-13.44,24.48-12.48,32.64-16.8,5.28-11,12.48-20.64,24.48-3.36,34.08-12.48,5.28-39.84,0-42.72-230.4-29.28-230.4-29.28L7073.46,7265s-17.28-1.92-27.36-2.88-46.08-1.44-46.08-1.44-1.92-9.6-5.76-13-13.44-3.84-27.36-2.4-46.56,6.72-46.56,6.72l-1-26.4-36-1Z" transform="translate(-6816.89 -7163.6)"></path><path class="cls-2" d="M6816.9,7219.86c.27-2.26,7-3.17,10.08-3.6a42.69,42.69,0,0,1,19.2,1.2c9.49,2.9,13.84,7.95,18.72,6a9.53,9.53,0,0,1,5.28-1c1.85.26,2.67,1.07,4.32,1.92a18.49,18.49,0,0,0,10.08,1.68c4-.33,5-1.92,8.16-2.88,6.07-1.82,8.62,2.07,19.2,4.56,11.56,2.72,18.2.35,20.4,4.56a5.68,5.68,0,0,1,0,5c-2.22,4.33-11.64,3.16-16.08,2.64-11.55-1.35-13.79-5.38-21.36-3.84-4.27.87-8.64,2.16-8.64,2.16-4.53,1.34-6.54,2.27-9.12,1.44-1.45-.47-2.41-1.35-4.32-3.12-4-3.73-3.7-5.43-6.48-7a12.16,12.16,0,0,0-6.72-1.2c-2.73.14-3.6.94-5.76,1.44-5.47,1.26-7.49-2.12-16.32-3.12-4.44-.5-4,.35-7.68-.24C6823.55,7225.58,6816.61,7222.24,6816.9,7219.86Z" transform="translate(-6816.89 -7163.6)"></path><path class="cls-2" d="M7291.62,7301.46c.45-1.78,8.18-1.28,13.2-1,8.43.54,13.37,1.84,20.4,3.12,10.92,2,9.23.73,22.56,2.88,15.5,2.5,21.11,4.75,24.72,6.48s5.36,4.18,10.32,6.24a39.8,39.8,0,0,0,12.24,2.88c.72-2.79,2.45-7.38,6.72-10.32,3.68-2.53,7.39-2.57,14.16-2.64s10.15-.11,13.2,1.92c6.53,4.34,6.51,14,6.48,15.6,5.41,1,14.05,2.53,24.72,4.32,14.47,2.42,27.85,4.48,45.12,8.16,4.69,1,26.29,5.79,35.28,16.56.86,1,3.28,3.93,2.4,5.52-1.29,2.31-8.78.38-11.28-.24-10-2.49-25.56-5-56.64-10.08-12.8-2.09-21.89-2.92-34.08-8.88a84.55,84.55,0,0,1-8.16-4.56,20.24,20.24,0,0,1-36.48-5.76c-18.07-2.43-31.76-4.19-40.32-5.28-13.2-1.68-18.2-2.26-25.68-4.8-3.25-1.1-10.33-4.57-24.48-11.52C7294.85,7304.62,7291.3,7302.74,7291.62,7301.46Z" transform="translate(-6816.89 -7163.6)"></path><ellipse class="cls-2" cx="61.45" cy="62.93" rx="11.76" ry="14.03"></ellipse><line class="cls-3" x1="478.33" y1="406.14" x2="738.49" y2="282.3"></line><line class="cls-4" x1="230.15" y1="314.3" x2="556.57" y2="233.38"></line><line class="cls-4" x1="230.15" y1="314.3" x2="667.74" y2="315.98"></line><line class="cls-5" x1="553.74" y1="370.24" x2="478.33" y2="252.78"></line><line class="cls-6" x1="553.74" y1="370.24" x2="652.34" y2="259.28"></line><line class="cls-4" x1="131.41" y1="151.9" x2="289.39" y2="299.61"></line><line class="cls-4" x1="425.53" y1="71.14" x2="493.62" y2="244.76"></line></svg>