<svg id="Building2" xmlns="http://www.w3.org/2000/svg" viewBox="0 0 225.39 400.04"><defs><style>.cls-1{fill:#00ebff;stroke:#fff;stroke-miterlimit:10;stroke-width:31px;}.cls-2{fill:#6b6eff;}.cls-3{fill:#81d0ff;}.cls-4{fill:#96a5ff;}.cls-5{fill:#5547ff;}.cls-6{fill:#fff;}.cls-7{fill:#06d4ff;}.cls-8{opacity:0.38;}</style></defs><title>hislip</title><polygon class="cls-1" points="66.32 352.78 102.9 318.81 90.35 289.46 71.44 138.15 66.32 352.78"/><rect class="cls-2" x="22.2" y="0.78" width="181" height="306.78" rx="45.79"/><rect class="cls-3" x="66.32" width="92.76" height="167.57" rx="46.38"/><path class="cls-2" d="M55,125.27H170.39a55,55,0,0,1,55,55V400a0,0,0,0,1,0,0H0a0,0,0,0,1,0,0V180.27A55,55,0,0,1,55,125.27Z"/><rect class="cls-4" x="58.29" y="120.61" width="108.82" height="279.43" rx="28.73"/><rect class="cls-5" x="13.1" y="169.87" width="36.58" height="18.29" rx="9.15"/><rect class="cls-6" x="66.32" y="169.87" width="36.58" height="18.29" rx="9.15"/><rect class="cls-6" x="122.5" y="169.87" width="36.58" height="18.29" rx="9.15"/><rect class="cls-6" x="73.53" y="95.05" width="32.64" height="18.29" rx="9.15"/><rect class="cls-6" x="119.23" y="95.05" width="32.36" height="18.29" rx="9.15"/><rect class="cls-6" x="73.53" y="68.92" width="32.64" height="18.29" rx="9.15"/><rect class="cls-6" x="119.23" y="68.92" width="32.36" height="18.29" rx="9.15"/><rect class="cls-6" x="73.53" y="42.79" width="32.64" height="18.29" rx="9.15"/><rect class="cls-6" x="119.23" y="42.79" width="32.36" height="18.29" rx="9.15"/><rect class="cls-6" x="73.53" y="16.66" width="32.64" height="18.29" rx="9.15"/><rect class="cls-6" x="119.23" y="16.66" width="32.36" height="18.29" rx="9.15"/><rect class="cls-5" x="175.41" y="169.87" width="36.58" height="18.29" rx="9.15"/><rect class="cls-5" x="43.8" y="95.05" width="18.29" height="18.29" rx="9.15"/><rect class="cls-5" x="163" y="95.05" width="18.29" height="18.29" rx="9.15"/><rect class="cls-7" x="13.1" y="196" width="36.58" height="18.29" rx="9.15"/><rect class="cls-7" x="66.32" y="196" width="36.58" height="18.29" rx="9.15"/><rect class="cls-7" x="122.5" y="196" width="36.58" height="18.29" rx="9.15"/><rect class="cls-7" x="175.41" y="196" width="36.58" height="18.29" rx="9.15"/><rect class="cls-5" x="13.1" y="222.13" width="36.58" height="18.29" rx="9.15"/><rect class="cls-6" x="66.32" y="222.13" width="36.58" height="18.29" rx="9.15"/><rect class="cls-6" x="122.5" y="222.13" width="36.58" height="18.29" rx="9.15"/><rect class="cls-5" x="175.41" y="222.13" width="36.58" height="18.29" rx="9.15"/><rect class="cls-7" x="13.1" y="248.26" width="36.58" height="18.29" rx="9.15"/><rect class="cls-7" x="66.32" y="248.26" width="36.58" height="18.29" rx="9.15"/><rect class="cls-7" x="122.5" y="248.26" width="36.58" height="18.29" rx="9.15"/><rect class="cls-7" x="175.41" y="248.26" width="36.58" height="18.29" rx="9.15"/><rect class="cls-5" x="13.1" y="274.39" width="36.58" height="18.29" rx="9.15"/><rect class="cls-6" x="66.32" y="274.39" width="36.58" height="18.29" rx="9.15"/><rect class="cls-6" x="122.5" y="274.39" width="36.58" height="18.29" rx="9.15"/><rect class="cls-5" x="175.41" y="274.39" width="36.58" height="18.29" rx="9.15"/><rect class="cls-7" x="13.1" y="300.52" width="36.58" height="18.29" rx="9.15"/><rect class="cls-7" x="66.32" y="300.52" width="36.58" height="18.29" rx="9.15"/><rect class="cls-7" x="122.5" y="300.52" width="36.58" height="18.29" rx="9.15"/><rect class="cls-7" x="175.41" y="300.52" width="36.58" height="18.29" rx="9.15"/><rect class="cls-5" x="13.1" y="326.65" width="36.58" height="18.29" rx="9.15"/><rect class="cls-6" x="66.32" y="326.65" width="36.58" height="18.29" rx="9.15"/><rect class="cls-6" x="122.5" y="326.65" width="36.58" height="18.29" rx="9.15"/><rect class="cls-5" x="175.41" y="326.65" width="36.58" height="18.29" rx="9.15"/><rect class="cls-7" x="13.1" y="352.78" width="36.58" height="18.29" rx="9.15"/><rect class="cls-7" x="66.32" y="352.78" width="36.58" height="18.29" rx="9.15"/><rect class="cls-7" x="122.5" y="352.78" width="36.58" height="18.29" rx="9.15"/><rect class="cls-7" x="175.41" y="352.78" width="36.58" height="18.29" rx="9.15"/><rect class="cls-5" x="13.1" y="378.91" width="36.58" height="18.29" rx="9.15"/><rect class="cls-6" x="66.32" y="378.91" width="36.58" height="18.29" rx="9.15"/><rect class="cls-6" x="122.5" y="378.91" width="36.58" height="18.29" rx="9.15"/><rect class="cls-5" x="175.41" y="378.91" width="36.58" height="18.29" rx="9.15"/><rect class="cls-5" x="43.8" y="68.92" width="18.29" height="18.29" rx="9.15"/><rect class="cls-5" x="163" y="68.92" width="18.29" height="18.29" rx="9.15"/><rect class="cls-5" x="48.85" y="42.79" width="17.46" height="18.29" rx="8.73"/><rect class="cls-5" x="159.08" y="42.79" width="18.6" height="18.29" rx="9.15"/><rect class="cls-5" x="48.85" y="16.66" width="17.46" height="18.29" rx="8.73"/><rect class="cls-5" x="159.08" y="16.66" width="18.6" height="18.29" rx="9.15"/><rect class="cls-8" x="13.1" y="140.48" width="198.89" height="18.29" rx="9.15"/><path class="cls-6" d="M7099.59,6729.82" transform="translate(-7077.39 -6717.22)"/></svg>