<svg xmlns="http://www.w3.org/2000/svg" viewBox="0 0 328.28 96.5"><defs><style>.cls-1{fill:#fff;}</style></defs><title>cloudywithachanceofmeatballs</title><g id="Layer_13" data-name="Layer 13"><path class="cls-1" d="M7259.77,7183.83h-75.06a12,12,0,0,1-8.61-11.5v-4a12,12,0,0,1,8.61-11.5h28.36a20.81,20.81,0,0,0,20.75-20.75h0a20.81,20.81,0,0,0-20.75-20.75h-246.5a20.81,20.81,0,0,0-20.75,20.75h0a20.81,20.81,0,0,0,20.75,20.75h117.86a12,12,0,0,1,8.67,11.5v4a12,12,0,0,1-8.67,11.5h-32a14.21,14.21,0,0,0-14.09,11.38,14,14,0,0,0,13.75,16.62h208a14,14,0,0,0,13.75-16.62A14.21,14.21,0,0,0,7259.77,7183.83Z" transform="translate(-6945.82 -7115.33)"/></g></svg>