<svg xmlns="http://www.w3.org/2000/svg" viewBox="0 0 217.84 354.77"><defs><style>.cls-1{fill:#e53e25;}.cls-2{fill:#e58c24;}.cls-3{fill:#e7e100;}.cls-4{fill:#fff;}</style></defs><title>fire</title><g id="Layer_11" data-name="Layer 11"><path class="cls-1" d="M7569.47,7348s-16.68,13.08-27.32,12.75-60.31-13.1-77-25.16S7424,7287,7414.43,7260s11.36-82.66,14.19-102.89-2.83-49-2.83-49,16,18.8,18.8,26.6,16.32,32.64,16.32,32.64,19.87-91.53,25.54-102.53,23.9-42.75,23.9-42.75-3.68,21.11-2.61,30.69,8.51,57.83,20.58,80.18,19.51,33,19.51,33,24.48-55.7,42.93-74.85a272.3,272.3,0,0,1,39-33s-30.16,33.35-35.83,67.41,4.26,65.28,5.67,74,20.58,38.49,17.39,67.23-12,51.09-19.14,59.6S7569.47,7348,7569.47,7348Z" transform="translate(-7411.94 -7022.11)"/></g><g id="Layer_10" data-name="Layer 10"><path class="cls-2" d="M7521.4,7340.52s-37.08,4.26-58.36-10.29-38.32-39.86-40.09-58.06,16-72.85,16.32-84.2-1.78-49.31-1.78-49.31l30.87,72.37s21.29-112.11,23.77-121.33,12.06-40.8,12.06-40.8-5,61.37-2.13,75.92,10.65,62.09,23.42,78.05l12.77,16s27-62.09,33-71.67,10.29-8.51,10.29-8.51-12.77,16.32-7.8,46.83,24.83,77,24.12,92.95-22,48.25-29.8,53.21S7521.4,7340.52,7521.4,7340.52Z" transform="translate(-7411.94 -7022.11)"/></g><g id="Layer_12" data-name="Layer 12"><path class="cls-3" d="M7538.6,7376.89s-52.5-32.82-61-39.56-26.25-40.45-27.67-50,5-42.34,6.74-55.41,3.19-40.26,3.19-40.26,10.65,29.89,14.2,35.46,11.35,16.92,11.35,16.92,3.9-67.05,5.32-75.21,9.22-30.15,9.22-30.15-.71,24.07,1.78,39.53,28.38,85.7,28.38,85.7,12.77-58.24,17-68.32S7560.6,7172,7560.6,7172a54.83,54.83,0,0,0-3.55,14.19c-.71,7.45,1.07,30,3.55,40.9s18.8,55.24,16.32,66.59-21.29,47.19-25.9,51.8-15.61,15.23-15.61,15.23a37.56,37.56,0,0,1,3.19,9.43c.89,5,0,6.74,0,6.74" transform="translate(-7411.94 -7022.11)"/></g><g id="Layer_13" data-name="Layer 13"><path class="cls-4" d="M7521.4,7350.1s-39.38-19.69-47.36-38.31-6-32.29-6-40.09-2.83-25.55-2.83-25.55l25.18,42.58,8.16-42.58s11,34.77,14.9,41.16,12.78,19.15,12.78,19.15,0-23.06,5.67-30.86a48.8,48.8,0,0,1,12.77-12.06s-2.48,1.77-1.77,9.93,11.35,34.77,9.93,43.28S7521.4,7350.1,7521.4,7350.1Z" transform="translate(-7411.94 -7022.11)"/></g></svg>