<svg xmlns="http://www.w3.org/2000/svg" viewBox="0 0 264 703.93"><defs><style>.cls-1{fill:#d85021;}.cls-2{fill:#e0c990;}.cls-3{fill:#c1ad80;}.cls-4{fill:#916c4a;}.cls-11,.cls-5,.cls-6,.cls-7,.cls-8{fill:none;stroke-linecap:round;stroke-miterlimit:10;}.cls-5{stroke:#99896a;stroke-width:10px;}.cls-6{stroke:#cc9671;}.cls-6,.cls-7,.cls-8{stroke-width:44px;}.cls-7{stroke:#b78665;}.cls-8{stroke:#8e572b;}.cls-9{fill:#a67c52;}.cls-10{fill:#35291d;}.cls-11{stroke:#d85021;stroke-width:16px;}.cls-12{fill:#683a1b;}.cls-13{fill:#8e572b;}</style></defs><title>farmerslip</title><g id="Hair"><path class="cls-1" d="M7270.25,6826.89H7172a43,43,0,0,0-28,10.49c-16.08,13.76-25.85,31.86-25.85,51.68,0,25.39,16,47.94,40.8,62.18v-.84h124.32v.84c24.78-14.24,40.8-36.79,40.8-62.18,0-19.84-9.78-37.94-25.89-51.7A42.82,42.82,0,0,0,7270.25,6826.89Z" transform="translate(-7080.74 -6826.89)"/></g><g id="Head"><circle class="cls-2" cx="143.67" cy="120.18" r="75.92"/><rect class="cls-2" x="143.67" y="44.26" width="75.92" height="75.92"/><circle class="cls-2" cx="68.23" cy="106.03" r="18.15"/><circle class="cls-3" cx="68.23" cy="106.03" r="10.55"/></g><g id="Neck"><rect class="cls-2" x="68.23" y="124.18" width="91.77" height="82.29"/><rect class="cls-4" x="7140.08" y="7026.36" width="103.45" height="33.33" rx="9.31" transform="translate(-6211.67 -7616.44) rotate(6.69)"/></g><g id="Mouth"><path class="cls-5" d="M7247.52,6971.45c-3.57,1.26-17.42,5.72-29.7-1" transform="translate(-7080.74 -6826.89)"/></g><g id="Legs"><path class="cls-6" d="M7120.54,7268.33a316.75,316.75,0,0,1,7.2,240.48" transform="translate(-7080.74 -6826.89)"/><path class="cls-7" d="M7223.54,7268.33a316.75,316.75,0,0,1,7.2,240.48" transform="translate(-7080.74 -6826.89)"/></g><g id="armL"><path class="cls-8" d="M7217.82,7080.69c-1.32,2.43,3.76,22,23.87,58.14,14.32,25.73,42.64,41.11,72.72,39.5" transform="translate(-7080.74 -6826.89)"/></g><g id="Body"><path class="cls-9" d="M7142.57,7050.27l94.09,11.57s21.69,9.52,26.88,48.85S7284.08,7276,7284.08,7276H7080.74L7097.13,7102a67.41,67.41,0,0,1,17.3-38.53C7121.76,7055.55,7131.36,7049,7142.57,7050.27Z" transform="translate(-7080.74 -6826.89)"/><path class="cls-4" d="M7080.74,7276h203.34s-4.34,13.76-13.67,13.76c-8.47,0-145.58.1-171,.28-2.83,0-6.52.13-8.86-1.45C7086.51,7285.85,7080.74,7281.06,7080.74,7276Z" transform="translate(-7080.74 -6826.89)"/></g><g id="Eye_R"><circle class="cls-10" cx="192.69" cy="104.98" r="12.94"/></g><g id="Brow_R"><path class="cls-11" d="M7263.54,6902.05c2.84-.81,13.84-3.61,23,2.5" transform="translate(-7080.74 -6826.89)"/></g><g id="Brow_L"><path class="cls-11" d="M7183.08,6906.88c2.53-1.51,12.45-7,22.87-3.47" transform="translate(-7080.74 -6826.89)"/></g><g id="Eye_L"><circle class="cls-10" cx="116.46" cy="104.98" r="12.94"/></g><g id="BG_Foot"><path class="cls-12" d="M7211.34,7492.85h47.73s34.37,10.18,35,24.18-58.86,11.45-58.86,11.45-35.32,2.09-35.32-17.72S7211.34,7492.85,7211.34,7492.85Z" transform="translate(-7080.74 -6826.89)"/></g><g id="Foot"><path class="cls-13" d="M7105,7492.85h47.73s34.37,10.18,35,24.18-58.86,11.45-58.86,11.45-35.32,2.09-35.32-17.72S7105,7492.85,7105,7492.85Z" transform="translate(-7080.74 -6826.89)"/></g><g id="BG_Hand"><circle class="cls-2" cx="233.67" cy="349.54" r="30.33"/><path class="cls-6" d="M7151.7,7085.45c-1.31,2.44-20.11,38.74,0,74.88,14.32,25.74,42.64,41.11,72.72,39.51" transform="translate(-7080.74 -6826.89)"/></g><g id="Hand"><circle class="cls-2" cx="143.67" cy="372.95" r="30.33"/></g></svg>