<svg xmlns="http://www.w3.org/2000/svg" viewBox="0 0 212.4 499.37"><defs><style>.cls-1{fill:#c73434;}.cls-2,.cls-4{fill:none;stroke-miterlimit:10;}.cls-2{stroke:#0c0659;stroke-width:38px;}.cls-3{fill:#294dd3;}.cls-4{stroke:#4968ce;stroke-linecap:round;stroke-width:32px;}.cls-5{fill:#FF5E5E;}.cls-6{fill:#3e27d4;}.cls-7{fill:#2a016d;}.cls-8{fill:#a40092;}</style></defs><title>female</title><g id="HairBG"><circle class="cls-1" cx="36.23" cy="150.05" r="31.68"/></g><g id="PlaceH"><path class="cls-2" d="M7143.36,7437.65A216.82,216.82,0,0,0,7138,7271" transform="translate(-7093.8 -6949.81)"/><path class="cls-2" d="M7223.36,7437.65A216.82,216.82,0,0,0,7218,7271" transform="translate(-7093.8 -6949.81)"/></g><g id="Body"><path class="cls-3" d="M7110.73,7278.34s34.14,22.31,77.75,12.27,72.67-24.48,72.67-24.48-21-100.84-28.43-119.83-13.21-55.87-22.36-67.65-17.53-18.64-35.6-17.67-36.65,3.27-43.63,28.31S7110.73,7278.34,7110.73,7278.34Z" transform="translate(-7093.8 -6949.81)"/></g><g id="Arm"><path class="cls-4" d="M7154.4,7124.93c.37,5.71,3.45,43.49,36.72,69.12,32,24.62,87.23,5.65,93.12,4.68" transform="translate(-7093.8 -6949.81)"/></g><g id="Hand"><circle class="cls-5" cx="190.44" cy="248.91" r="21.96"/></g><g id="Shoe_L"><path class="cls-6" d="M7152.68,7449.17h20.88s5.4.72,8.28-6.12-6.12-10.44-6.12-10.44l-12.42-10.26s-2.88-3.78-5-3.78-28.26,8.64-28.26,8.64-3.78.72-5,2.34-1.08,6.66-1.08,6.66v7.38s.19,2.52,1.45,3.6,6.66,2,6.66,2Z" transform="translate(-7093.8 -6949.81)"/></g><g id="Shoe_R"><path class="cls-6" d="M7232.68,7449.17h20.88s5.4.72,8.28-6.12-6.12-10.44-6.12-10.44l-12.42-10.26s-2.88-3.78-5-3.78-28.26,8.64-28.26,8.64-3.78.72-5,2.34-1.08,6.66-1.08,6.66v7.38s.19,2.52,1.45,3.6,6.66,2,6.66,2Z" transform="translate(-7093.8 -6949.81)"/></g><g id="Head"><path class="cls-5" d="M7172.32,7069.79a23.1,23.1,0,0,0,7.63,6.36,18.48,18.48,0,0,0,7.35,2,18.93,18.93,0,0,0,12-3.67c2.25-1.61,4.74-3.39,5.7-6.51.65-2.1.16-3.36,1.45-5.5a12.33,12.33,0,0,1,3.38-3.47,19.57,19.57,0,0,1,4.17-2.44c4.93-2.12,11.85-7,13.18-8.08,4.28-3.41,4.92-11.9,3.65-26.93-1.88-22.06-2.81-33.09-9.59-45.31-4.78-8.62-9.85-17.75-20.54-22.47-15.08-6.66-32.56-.68-43.08,7.63-17,13.45-18,34.79-18.61,46.31-.71,14.63,2.08,41.25,15.91,50.19C7159.33,7060.78,7166.56,7063,7172.32,7069.79Z" transform="translate(-7093.8 -6949.81)"/></g><g id="Nose"><rect class="cls-5" x="7221.4" y="7005.51" width="11.32" height="20.71" rx="2.55" transform="translate(-9583.48 -2586.81) rotate(-28.88)"/></g><g id="Brow"><rect class="cls-1" x="7206.66" y="6997.15" width="15.39" height="4.84" rx="1.98" transform="translate(-8149.7 -5663.72) rotate(-9.5)"/></g><g id="Eye"><circle class="cls-7" cx="124.13" cy="64.29" r="5.72"/></g><g id="mouth"><path class="cls-8" d="M7230.4,7034.64a15,15,0,0,1-7.22-.84,13,13,0,0,1-5.52-3.91,1.87,1.87,0,0,0-2.94-.13,2.74,2.74,0,0,0-.05,3.45,17.34,17.34,0,0,0,7.3,5.24,18.46,18.46,0,0,0,7.8,1.15c.42,0,.81-.06,1.17-.11l.17,0c.17-1.39.27-2.94.31-4.63A1.81,1.81,0,0,0,7230.4,7034.64Z" transform="translate(-7093.8 -6949.81)"/></g><g id="Hair"><circle class="cls-1" cx="7119.72" cy="7048.86" r="25.92" transform="translate(-7538.92 -6469.82) rotate(-3.74)"/><circle class="cls-1" cx="61.58" cy="106.1" r="25.92"/><path class="cls-1" d="M7099.78,7034.49a41,41,0,0,1,5.5-7.81,44.8,44.8,0,0,1,7-6.35,34,34,0,0,1,13.16-22.15,43.54,43.54,0,0,1,5-20c6-11.3,15.55-16.49,21.1-19.42,6.4-3.37,30.67-16.18,52.08-3.41,16.77,10,21,28.58,22.55,32.55-24.79-2.58-35.71,3.16-39.86,8.81-3.82,5.2-3.64,11.52-10.67,16.21-3.82,2.56-8.4,3.72-12.22,8.92-.85,1.17-3.08,2.94-2.74,5a4.6,4.6,0,0,0,1.8,2.59c4.08,3.68,6.39,4.72,8.56,6.84,1.56,1.51,3.84,3.72,3.81,5.88-.07,6.93-23.88,11.68-25.19,11.93-9.52,1.84-25.47,4.93-39.53-3.19-.68-.39-12.88-7.56-11.71-13.48A13.91,13.91,0,0,1,7099.78,7034.49Z" transform="translate(-7093.8 -6949.81)"/></g></svg>