<svg xmlns="http://www.w3.org/2000/svg" viewBox="0 0 795.51 628.79"><defs><style>.cls-1{fill:#603813;}</style></defs><title>smallseeds</title><g id="Layer_13" data-name="Layer 13"><ellipse class="cls-1" cx="518.15" cy="18.93" rx="10.58" ry="8.69"/><ellipse class="cls-1" cx="7328.72" cy="7177.51" rx="10.22" ry="11.9" transform="translate(-9642.98 -1123.47) rotate(-37.13)"/><ellipse class="cls-1" cx="7093.08" cy="7093.44" rx="9.63" ry="13.49" transform="translate(-9645.99 1420.33) rotate(-52.62)"/><ellipse class="cls-1" cx="483.65" cy="95.89" rx="10.58" ry="8.69"/><ellipse class="cls-1" cx="543.12" cy="113.28" rx="10.58" ry="8.69"/><ellipse class="cls-1" cx="7216.45" cy="7091.36" rx="12.21" ry="9.38" transform="translate(-9230.43 -2949.15) rotate(-27.03)"/><ellipse class="cls-1" cx="7285.32" cy="7048.16" rx="12.21" ry="9.38" transform="translate(-9203.28 -2922.57) rotate(-27.03)"/><ellipse class="cls-1" cx="706.49" cy="251.31" rx="10.58" ry="8.69"/><ellipse class="cls-1" cx="7312.26" cy="7326.86" rx="10.22" ry="11.9" transform="translate(-9736.47 -1103.13) rotate(-37.13)"/><ellipse class="cls-1" cx="374.96" cy="172.85" rx="10.58" ry="8.69"/><ellipse class="cls-1" cx="370.31" cy="87.2" rx="10.58" ry="8.69"/><ellipse class="cls-1" cx="6925.24" cy="7310.49" rx="14" ry="10.18" transform="translate(-9772.03 2143.78) rotate(-57.06)"/><ellipse class="cls-1" cx="425.64" cy="220.71" rx="10.58" ry="8.69"/><ellipse class="cls-1" cx="478.56" cy="164.16" rx="10.58" ry="8.69"/><ellipse class="cls-1" cx="425.64" cy="314.65" rx="10.58" ry="8.69"/><ellipse class="cls-1" cx="504.8" cy="505.86" rx="10.58" ry="8.69"/><ellipse class="cls-1" cx="628.22" cy="172.85" rx="10.58" ry="8.69"/><ellipse class="cls-1" cx="296.9" cy="197.69" rx="10.58" ry="8.69"/><ellipse class="cls-1" cx="321.02" cy="139.32" rx="10.58" ry="8.69"/><ellipse class="cls-1" cx="146.34" cy="212.01" rx="10.58" ry="8.69"/><ellipse class="cls-1" cx="218.13" cy="148.01" rx="10.58" ry="8.69"/><ellipse class="cls-1" cx="768.89" cy="589.25" rx="12.11" ry="8.69"/><ellipse class="cls-1" cx="6909.53" cy="7517.22" rx="9.47" ry="11.56" transform="translate(-9673.38 3424.9) rotate(-63.97)"/><ellipse class="cls-1" cx="784.93" cy="475.12" rx="10.58" ry="8.69"/><ellipse class="cls-1" cx="525.96" cy="389.83" rx="10.58" ry="8.69"/><ellipse class="cls-1" cx="7427.61" cy="7591.91" rx="11.6" ry="10.37" transform="matrix(0.51, -0.86, 0.86, 0.51, -9690.42, 3092.44)"/><ellipse class="cls-1" cx="623.79" cy="478.67" rx="12.11" ry="8.69"/><ellipse class="cls-1" cx="385.21" cy="401.15" rx="10.58" ry="8.69"/><ellipse class="cls-1" cx="515.38" cy="257.71" rx="10.58" ry="8.69"/><ellipse class="cls-1" cx="292.79" cy="414.67" rx="13.29" ry="8.69"/><ellipse class="cls-1" cx="252.78" cy="617.85" rx="10.58" ry="8.69"/><ellipse class="cls-1" cx="10.58" cy="617.03" rx="10.58" ry="11.76"/><ellipse class="cls-1" cx="674.43" cy="324.19" rx="10.58" ry="8.69"/><ellipse class="cls-1" cx="431.39" cy="593.01" rx="14.57" ry="8.69"/><ellipse class="cls-1" cx="69.04" cy="389.83" rx="13.29" ry="8.69"/><ellipse class="cls-1" cx="7034.66" cy="7317.94" rx="14" ry="10.18" transform="translate(-9728.36 2239) rotate(-57.06)"/><ellipse class="cls-1" cx="178.46" cy="397.29" rx="13.29" ry="8.69"/><ellipse class="cls-1" cx="243.02" cy="514.55" rx="10.58" ry="8.69"/><ellipse class="cls-1" cx="738.55" cy="414.67" rx="10.58" ry="8.69"/><ellipse class="cls-1" cx="380.89" cy="8.69" rx="10.58" ry="8.69"/><ellipse class="cls-1" cx="7103.32" cy="7272.61" rx="10.35" ry="13.33" transform="translate(-9258.37 -3172.3) rotate(-25.88)"/></g></svg>