<svg id="Layer_1" data-name="Layer 1" xmlns="http://www.w3.org/2000/svg" viewBox="0 0 531.84 335.61"><defs><style>.cls-1{fill:#d8d8d8;}.cls-2{fill:#7c7c7c;}</style></defs><title>drone3</title><path class="cls-1" d="M7046.58,7458.42c5-.25,8-5.66,9.6-8.64,4.7-8.53,3.4-17.64,2.4-22.08,0,0-2.63-15.89,8.64-49,7.9-23.18,30.5-34,73-54.24,25.72-12.28,49.33-23.26,83-25.44,24.87-1.61,43.59,2.33,57.12,5.28,30.68,6.69,86.83,18.93,109.44,61,8.82,16.39,15.71,29.21,14.88,45.12-.38,7.16.87,15.33,3.36,31.68a16,16,0,0,0,4.32,9.12c.76.74,4.66,4.57,8.64,3.36,3.75-1.14,4.8-7.32,5.28-10.56,4.17-27.94,2.34-58.14,5.76-83.16,1-7.48.84-15.86.48-32.64-.11-5.11-.26-7.88-2-10.8-4.79-7.86-16.05-8.09-28.56-9.84-3.81-.53-15.14-3.47-37.8-9.36,0,0-34.09-8.85-72.36-34.92-1.95-1.33-5.06-3.51-5.4-6.84-.65-6.4,10.49-9.39,36-24.48,12.61-7.46,27-11.58,39.6-19.08,1.15-.68,4.27-2.58,6.84-1.44,3.29,1.45,3.55,7,4,12.24,2.33,29.66,8.33,37.14,5.4,47.88a9.49,9.49,0,0,0,0,6.12c1.24,3.16,4.65,6.71,9,6.48,4.68-.25,8.85-4.77,8.64-10.44a279.21,279.21,0,0,1,.72-51.12s2-17.55-1.08-45.36a20.7,20.7,0,0,0-1.44-5.76,24.11,24.11,0,0,0-8.28-10.08c-3.88-3-7.35-5.54-11.52-5.4-6.92.23-9,7.78-20.52,17.28-3.22,2.67-6.47,4.66-13,8.64-10.44,6.4-29.07,17.83-54,25.2-20.48,6-36.38,6.76-54.36,7.56-21.93,1-36.26,1.61-55.08-2.52-21.87-4.8-55.54-12.19-70.56-34.56-2-3-9.67-15.17-21.6-18.36a21.64,21.64,0,0,0-10.08-.36,22,22,0,0,0-11.88,7.56c-6.14,7.2-5.94,16.32-6.12,26.28-.47,26.12-3.56,61.54-2.16,76,.1,1,.43,3.21,1.08,7.56,1,6.75,1.28,7.68,2.16,8.64a8.89,8.89,0,0,0,10.44,1.44c2.36-1.39,3.23-3.78,4-5.76a17.12,17.12,0,0,0,.72-8.64c-.68-4.45.55-18.39,8.28-58.32l82.8,37.08-.36,18-72,36a103.24,103.24,0,0,1-38.88,4.32c-4.19.71-11.77,2.67-16.56,9a23.4,23.4,0,0,0-4.32,13c-2.73,41.7,4,88.92,4,88.92,2.7,19.05,3.49,23,2.16,27.36a8.9,8.9,0,0,0,0,6.12A9,9,0,0,0,7046.58,7458.42Z" transform="translate(-6962.1 -7122.82)"/><path class="cls-2" d="M6962.1,7242.9a67.6,67.6,0,0,1,15.36,0c8.64,1,57.12,32.16,57.12,32.16s20.16,11,20.16,14.88V7300l15.84,11,53.76,45.12,37,35.52-13.44,8.64s-15.36-15.36-21.12-16.8-39.84-17.28-43.68-18.72-27.84-31.2-27.84-31.2-4.32,5.28-13.92-2.4,1.92-24,1.92-24l-11.69-6.24-58.39-48Z" transform="translate(-6962.1 -7122.82)"/><path class="cls-2" d="M7493.94,7242.9a67.6,67.6,0,0,0-15.36,0c-8.64,1-57.12,32.16-57.12,32.16s-20.16,11-20.16,14.88V7300l-15.84,11-53.76,45.12-37,35.52,13.44,8.64s15.36-15.36,21.12-16.8,39.84-17.28,43.68-18.72,27.84-31.2,27.84-31.2,4.32,5.28,13.92-2.4-1.92-24-1.92-24l11.69-6.24,58.39-48Z" transform="translate(-6962.1 -7122.82)"/><path class="cls-2" d="M7278.64,7129.58a61.08,61.08,0,0,1,13.48-3.33c7.8-1,57.13,15.87,57.13,15.87s20.09,5.33,20.92,8.7l2.19,8.85,16.3,6.26,57,28,40.14,23.18-9.93,10.5s-16.81-10.16-22.18-10.18-38.73-6.54-42.41-7-31.2-21.37-31.2-21.37-2.65,5.57-12.75.91-3.51-21.49-3.51-21.49l-11.62-2.95-61.67-29.5Z" transform="translate(-6962.1 -7122.82)"/><path class="cls-2" d="M7173.57,7125.65a61,61,0,0,0-13.6-2.81c-7.83-.73-56.48,18-56.48,18s-19.88,6.09-20.58,9.49l-1.85,8.92-16.05,6.88-55.88,30.12L6969.89,7221l10.32,10.11s16.42-10.79,21.79-11,38.45-8,42.11-8.58,30.37-22.53,30.37-22.53,2.86,5.46,12.77.42,2.7-21.61,2.7-21.61l11.5-3.38,60.5-31.82Z" transform="translate(-6962.1 -7122.82)"/></svg>